0
SECTION
2
HEADER
9
$INSUNITS
70
4
9
$ACADVER
1
AC1014
9
$HANDSEED
5
FFFF
0
ENDSEC
0
SECTION
2
TABLES
0
TABLE
2
VPORT
5
8
100
AcDbSymbolTable
0
ENDTAB
0
TABLE
2
LTYPE
5
5
100
AcDbSymbolTable
0
LTYPE
5
14
100
AcDbSymbolTableRecord
100
AcDbLinetypeTableRecord
2
BYBLOCK
70
0
0
LTYPE
5
15
100
AcDbSymbolTableRecord
100
AcDbLinetypeTableRecord
2
BYLAYER
70
0
0
ENDTAB
0
TABLE
2
LAYER
5
2
100
AcDbSymbolTable
70
2
0
LAYER
5
50
100
AcDbSymbolTableRecord
100
AcDbLayerTableRecord
2
0
70
0
6
CONTINUOUS
0
ENDTAB
0
TABLE
2
STYLE
5
3
100
AcDbSymbolTable
70
1
0
STYLE
5
11
100
AcDbSymbolTableRecord
100
AcDbTextStyleTableRecord
2
STANDARD
70
0
0
ENDTAB
0
TABLE
2
VIEW
5
6
100
AcDbSymbolTable
70
0
0
ENDTAB
0
TABLE
2
UCS
5
7
100
AcDbSymbolTable
70
0
0
ENDTAB
0
TABLE
2
APPID
5
9
100
AcDbSymbolTable
70
2
0
APPID
5
12
100
AcDbSymbolTableRecord
100
AcDbRegAppTableRecord
2
ACAD
70
0
0
ENDTAB
0
TABLE
2
DIMSTYLE
5
A
100
AcDbSymbolTable
70
1
0
ENDTAB
0
TABLE
2
BLOCK_RECORD
5
1
100
AcDbSymbolTable
70
1
0
BLOCK_RECORD
5
1F
100
AcDbSymbolTableRecord
100
AcDbBlockTableRecord
2
*MODEL_SPACE
0
BLOCK_RECORD
5
1B
100
AcDbSymbolTableRecord
100
AcDbBlockTableRecord
2
*PAPER_SPACE
0
ENDTAB
0
ENDSEC
0
SECTION
2
BLOCKS
0
BLOCK
5
20
100
AcDbEntity
100
AcDbBlockBegin
2
*MODEL_SPACE
0
ENDBLK
5
21
100
AcDbEntity
100
AcDbBlockEnd
0
BLOCK
5
1C
100
AcDbEntity
100
AcDbBlockBegin
2
*PAPER_SPACE
0
ENDBLK
5
1D
100
AcDbEntity
100
AcDbBlockEnd
0
ENDSEC
0
SECTION
2
ENTITIES
0
LWPOLYLINE
5
100
100
AcDbEntity
8
0
100
AcDbPolyline
90
16
70
1
43
0.0
10
1.0000000000000004
20
0
10
172
20
0
42
0.41421356237309509
10
173
20
0.99999999999999867
10
173
20
138.94999999999999
42
0.41421356237309509
10
172
20
139.94999999999999
10
91.500000000000028
20
139.94999999999999
42
-0.41421356237309509
10
91
20
140.44999999999999
10
91
20
141.44999999999996
42
0.41421356237309509
10
90.499999999999972
20
141.94999999999999
10
82.000000000000028
20
141.94999999999999
42
0.41421356237309509
10
81.5
20
141.44999999999996
10
81.5
20
140.45000000000002
42
-0.41421356237309509
10
80.999999999999972
20
139.94999999999999
10
0.99999999999999634
20
139.94999999999999
42
0.41421356237309509
10
-1.3978753888627952e-16
20
138.94999999999999
10
1.3877787807814457e-16
20
1.000000000000014
42
0.41421356237309909
0
LWPOLYLINE
5
101
100
AcDbEntity
8
0
100
AcDbPolyline
90
4
70
1
43
0.0
10
26.425996817956637
20
53.025240312008243
10
146.88274540755302
20
53.025240312007973
10
146.8827454075531
20
93.725643419072924
10
26.425996817956715
20
93.72564341907318
0
LWPOLYLINE
5
102
100
AcDbEntity
8
0
100
AcDbPolyline
90
4
70
1
43
0.0
10
23.334758432676811
20
66.209093652560227
10
149.92409302014943
20
66.209093652560227
42
-3.3904336389733714
10
149.92409302014943
20
65.327118218342932
10
23.334758432676814
20
65.327118218342932
42
-3.3899174561006982
0
SPLINE
5
103
100
AcDbEntity
8
0
100
AcDbSpline
70
0
71
2
72
6
73
3
74
0
42
0.000000001
43
0.0000000001
44
0.0000000001
40
0
40
0
40
0
40
1
40
1
40
1
10
33.104588337550865
20
75.600551627920225
30
0
10
33.104588337550865
20
74.933883212850645
30
0
10
32.87082249702047
20
74.293190501974181
30
0
0
SPLINE
5
104
100
AcDbEntity
8
0
100
AcDbSpline
70
0
71
2
72
6
73
3
74
0
42
0.000000001
43
0.0000000001
44
0.0000000001
40
0
40
0
40
0
40
1
40
1
40
1
10
32.87082249702047
20
74.293190501974181
30
0
10
32.645714827190147
20
73.661157153890684
30
0
10
32.13489229262899
20
73.107043765829161
30
0
0
SPLINE
5
105
100
AcDbEntity
8
0
100
AcDbSpline
70
0
71
2
72
6
73
3
74
0
42
0.000000001
43
0.0000000001
44
0.0000000001
40
0
40
0
40
0
40
1
40
1
40
1
10
32.13489229262899
20
73.107043765829161
30
0
10
31.624069758067833
20
72.561589740560606
30
0
10
30.749610610614518
20
72.21527006511505
30
0
0
SPLINE
5
106
100
AcDbEntity
8
0
100
AcDbSpline
70
0
71
2
72
6
73
3
74
0
42
0.000000001
43
0.0000000001
44
0.0000000001
40
0
40
0
40
0
40
1
40
1
40
1
10
30.749610610614518
20
72.21527006511505
30
0
10
29.88380963386129
20
71.877607368276671
30
0
10
28.706320472369896
20
71.877607368276671
30
0
0
LINE
5
107
100
AcDbEntity
8
0
100
AcDbLine
10
28.706320472369896
20
71.877607368276671
30
0
11
26.334025807986961
21
71.877607368276685
31
0
0
LINE
5
108
100
AcDbEntity
8
0
100
AcDbLine
10
26.334025807986961
20
71.877607368276685
30
0
11
26.334025807986951
21
67.375442050741285
31
0
0
LINE
5
109
100
AcDbEntity
8
0
100
AcDbLine
10
26.334025807986951
20
67.375442050741285
30
0
11
22.714978255639767
21
67.375442050741285
31
0
0
LINE
5
110
100
AcDbEntity
8
0
100
AcDbLine
10
22.714978255639767
20
67.375442050741285
30
0
11
22.714978255639792
21
79.375442527578443
31
0
0
LINE
5
111
100
AcDbEntity
8
0
100
AcDbLine
10
22.714978255639792
20
79.375442527578443
30
0
11
28.70632047236991
21
79.375442527578429
31
0
0
SPLINE
5
112
100
AcDbEntity
8
0
100
AcDbSpline
70
0
71
2
72
6
73
3
74
0
42
0.000000001
43
0.0000000001
44
0.0000000001
40
0
40
0
40
0
40
1
40
1
40
1
10
28.70632047236991
20
79.375442527578429
30
0
10
29.883809633861304
20
79.375442527578429
30
0
10
30.749610610614532
20
79.029121660039976
30
0
0
SPLINE
5
113
100
AcDbEntity
8
0
100
AcDbSpline
70
0
71
2
72
6
73
3
74
0
42
0.000000001
43
0.0000000001
44
0.0000000001
40
0
40
0
40
0
40
1
40
1
40
1
10
30.749610610614532
20
79.029121660039976
30
0
10
31.62406975806784
20
78.68280198459442
30
0
10
32.134892292628997
20
78.128688596532896
30
0
0
SPLINE
5
114
100
AcDbEntity
8
0
100
AcDbSpline
70
0
71
2
72
6
73
3
74
0
42
0.000000001
43
0.0000000001
44
0.0000000001
40
0
40
0
40
0
40
1
40
1
40
1
10
32.134892292628997
20
78.128688596532896
30
0
10
32.645714827190154
20
77.574576400564268
30
0
10
32.87082249702047
20
76.925226711080626
30
0
0
SPLINE
5
115
100
AcDbEntity
8
0
100
AcDbSpline
70
0
71
2
72
6
73
3
74
0
42
0.000000001
43
0.0000000001
44
0.0000000001
40
0
40
0
40
0
40
1
40
1
40
1
10
32.87082249702047
20
76.925226711080626
30
0
10
33.104588337550865
20
76.275874637411192
30
0
10
33.104588337550865
20
75.600551627920225
30
0
0
SPLINE
5
116
100
AcDbEntity
8
0
100
AcDbSpline
70
0
71
2
72
6
73
3
74
0
42
0.000000001
43
0.0000000001
44
0.0000000001
40
0
40
0
40
0
40
1
40
1
40
1
10
29.416277356754055
20
75.583235286520079
30
0
10
29.416277356754055
20
76.440376304433897
30
0
10
28.905454822192898
20
76.752065681264952
30
0
0
SPLINE
5
117
100
AcDbEntity
8
0
100
AcDbSpline
70
0
71
2
72
6
73
3
74
0
42
0.000000001
43
0.0000000001
44
0.0000000001
40
0
40
0
40
0
40
1
40
1
40
1
10
28.905454822192898
20
76.752065681264952
30
0
10
28.403289862285369
20
77.072412036703184
30
0
10
27.095930524478668
20
77.072412036703199
30
0
0
LINE
5
118
100
AcDbEntity
8
0
100
AcDbLine
10
27.095930524478668
20
77.072412036703199
30
0
11
26.334025807986968
21
77.072412036703199
31
0
0
LINE
5
119
100
AcDbEntity
8
0
100
AcDbLine
10
26.334025807986968
20
77.072412036703199
30
0
11
26.334025807986965
21
74.180637859151929
31
0
0
LINE
5
120
100
AcDbEntity
8
0
100
AcDbLine
10
26.334025807986965
20
74.180637859151929
30
0
11
27.113246865878811
21
74.180637859151929
31
0
0
SPLINE
5
121
100
AcDbEntity
8
0
100
AcDbSpline
70
0
71
2
72
6
73
3
74
0
42
0.000000001
43
0.0000000001
44
0.0000000001
40
0
40
0
40
0
40
1
40
1
40
1
10
27.113246865878811
20
74.180637859151929
30
0
10
28.013679929385891
20
74.180637859151915
30
0
10
28.498527951846828
20
74.293190501974181
30
0
0
SPLINE
5
122
100
AcDbEntity
8
0
100
AcDbSpline
70
0
71
2
72
6
73
3
74
0
42
0.000000001
43
0.0000000001
44
0.0000000001
40
0
40
0
40
0
40
1
40
1
40
1
10
28.498527951846828
20
74.293190501974181
30
0
10
28.983376570354213
20
74.405745528982237
30
0
10
29.19982666553091
20
74.708775543020323
30
0
0
SPLINE
5
123
100
AcDbEntity
8
0
100
AcDbSpline
70
0
71
2
72
6
73
3
74
0
42
0.000000001
43
0.0000000001
44
0.0000000001
40
0
40
0
40
0
40
1
40
1
40
1
10
29.19982666553091
20
74.708775543020323
30
0
10
29.416277356754055
20
75.011805557058409
30
0
10
29.416277356754055
20
75.583235286520079
30
0
0
LINE
5
124
100
AcDbEntity
8
0
100
AcDbLine
10
48.290737219463082
20
67.375442050741228
30
0
11
44.585109301219674
21
67.375442050741242
31
0
0
LINE
5
125
100
AcDbEntity
8
0
100
AcDbLine
10
44.585109301219674
20
67.375442050741242
30
0
11
43.60675389350483
21
69.808341525838898
31
0
0
LINE
5
126
100
AcDbEntity
8
0
100
AcDbLine
10
43.606753893504838
20
69.808341525838898
30
0
11
38.394632883678177
21
69.808341525838912
31
0
0
LINE
5
127
100
AcDbEntity
8
0
100
AcDbLine
10
38.394632883678177
20
69.808341525838898
30
0
11
37.398962326656083
21
67.375442050741242
31
0
0
LINE
5
128
100
AcDbEntity
8
0
100
AcDbLine
10
37.398962326656076
20
67.375442050741256
30
0
11
33.693334408412667
21
67.37544205074127
31
0
0
LINE
5
129
100
AcDbEntity
8
0
100
AcDbLine
10
33.693334408412674
20
67.37544205074127
30
0
11
39.000694103847266
21
79.375442527578414
31
0
0
LINE
5
130
100
AcDbEntity
8
0
100
AcDbLine
10
39.000694103847259
20
79.3754425275784
30
0
11
43.000693865428673
21
79.3754425275784
31
0
0
LINE
5
131
100
AcDbEntity
8
0
100
AcDbLine
10
43.000693865428673
20
79.3754425275784
30
0
11
48.290737219463082
21
67.375442050741242
31
0
0
LINE
5
132
100
AcDbEntity
8
0
100
AcDbLine
10
42.775586195598343
20
71.894923709676789
30
0
11
41.018009729991661
21
76.275874637411164
31
0
0
LINE
5
133
100
AcDbEntity
8
0
100
AcDbLine
10
41.018009729991661
20
76.275874637411164
30
0
11
39.243118115077714
21
71.894923709676789
31
0
0
LINE
5
134
100
AcDbEntity
8
0
100
AcDbLine
10
39.243118115077714
20
71.894923709676789
30
0
11
42.775586195598343
21
71.894923709676789
31
0
0
LINE
5
135
100
AcDbEntity
8
0
100
AcDbLine
10
61.390302725444542
20
76.457692645833973
30
0
11
56.99203545631002
21
76.457692645833987
31
0
0
LINE
5
136
100
AcDbEntity
8
0
100
AcDbLine
10
56.99203545631002
20
76.457692645833987
30
0
11
56.992035456310006
21
67.375442050741214
31
0
0
LINE
5
137
100
AcDbEntity
8
0
100
AcDbLine
10
56.992035456310006
20
67.375442050741214
30
0
11
53.381646223674508
21
67.375442050741214
31
0
0
LINE
5
138
100
AcDbEntity
8
0
100
AcDbLine
10
53.381646223674508
20
67.375442050741214
30
0
11
53.381646223674522
21
76.457692645833987
31
0
0
LINE
5
139
100
AcDbEntity
8
0
100
AcDbLine
10
53.381646223674522
20
76.457692645833987
30
0
11
48.98337657035421
21
76.457692645834001
31
0
0
LINE
5
140
100
AcDbEntity
8
0
100
AcDbLine
10
48.98337657035421
20
76.457692645834001
30
0
11
48.983376570354224
21
79.375442527578386
31
0
0
LINE
5
141
100
AcDbEntity
8
0
100
AcDbLine
10
48.98337657035421
20
79.375442527578386
30
0
11
61.390302725444542
21
79.375442527578357
31
0
0
LINE
5
142
100
AcDbEntity
8
0
100
AcDbLine
10
61.390302725444542
20
79.375442527578357
30
0
11
61.390302725444535
21
76.457692645833973
31
0
0
LINE
5
143
100
AcDbEntity
8
0
100
AcDbLine
10
76.178176947246286
20
67.375442050741171
30
0
11
72.567790098796578
21
67.375442050741171
31
0
0
LINE
5
144
100
AcDbEntity
8
0
100
AcDbLine
10
72.567790098796578
20
67.375442050741171
30
0
11
72.567790098796593
21
72.059425376699423
31
0
0
LINE
5
145
100
AcDbEntity
8
0
100
AcDbLine
10
72.567790098796578
20
72.059425376699423
30
0
11
67.121899672160836
21
72.059425376699437
31
0
0
LINE
5
146
100
AcDbEntity
8
0
100
AcDbLine
10
67.121899672160836
20
72.059425376699437
30
0
11
67.121899672160822
21
67.375442050741185
31
0
0
LINE
5
147
100
AcDbEntity
8
0
100
AcDbLine
10
67.121899672160836
20
67.375442050741185
30
0
11
63.502853460918161
21
67.375442050741199
31
0
0
LINE
5
148
100
AcDbEntity
8
0
100
AcDbLine
10
63.502853460918161
20
67.375442050741185
30
0
11
63.502853460918175
21
79.375442527578343
31
0
0
LINE
5
149
100
AcDbEntity
8
0
100
AcDbLine
10
63.502853460918175
20
79.375442527578343
30
0
11
67.121899672160851
21
79.375442527578343
31
0
0
LINE
5
150
100
AcDbEntity
8
0
100
AcDbLine
10
67.121899672160851
20
79.375442527578343
30
0
11
67.121899672160851
21
74.968515895650853
31
0
0
LINE
5
151
100
AcDbEntity
8
0
100
AcDbLine
10
67.121899672160836
20
74.968515895650853
30
0
11
72.567790098796578
21
74.968515895650853
31
0
0
LINE
5
152
100
AcDbEntity
8
0
100
AcDbLine
10
72.567790098796578
20
74.968515895650839
30
0
11
72.567790098796593
21
79.375442527578329
31
0
0
LINE
5
153
100
AcDbEntity
8
0
100
AcDbLine
10
72.567790098796593
20
79.375442527578329
30
0
11
76.1781769472463
21
79.375442527578329
31
0
0
LINE
5
154
100
AcDbEntity
8
0
100
AcDbLine
10
76.1781769472463
20
79.375442527578329
30
0
11
76.178176947246286
21
67.375442050741171
31
0
0
LINE
5
155
100
AcDbEntity
8
0
100
AcDbLine
10
87.788570471416207
20
72.232584022329277
30
0
11
82.810214110027047
21
72.232584022329277
31
0
0
LINE
5
156
100
AcDbEntity
8
0
100
AcDbLine
10
82.810214110027047
20
72.232584022329291
30
0
11
82.810214110027047
21
67.375442050741157
31
0
0
LINE
5
157
100
AcDbEntity
8
0
100
AcDbLine
10
82.810214110027047
20
67.375442050741157
30
0
11
79.191167898784371
21
67.375442050741171
31
0
0
LINE
5
158
100
AcDbEntity
8
0
100
AcDbLine
10
79.191167898784371
20
67.375442050741157
30
0
11
79.191167898784386
21
79.375442527578315
31
0
0
LINE
5
159
100
AcDbEntity
8
0
100
AcDbLine
10
79.191167898784386
20
79.375442527578315
30
0
11
87.788570471416222
21
79.375442527578301
31
0
0
LINE
5
160
100
AcDbEntity
8
0
100
AcDbLine
10
87.788570471416222
20
79.375442527578301
30
0
11
87.788570471416222
21
76.968516372487969
31
0
0
LINE
5
161
100
AcDbEntity
8
0
100
AcDbLine
10
87.788570471416222
20
76.968516372487969
30
0
11
82.810214110027061
21
76.968516372487969
31
0
0
LINE
5
162
100
AcDbEntity
8
0
100
AcDbLine
10
82.810214110027061
20
76.968516372487983
30
0
11
82.810214110027061
21
74.648169540212592
31
0
0
LINE
5
163
100
AcDbEntity
8
0
100
AcDbLine
10
82.810214110027047
20
74.648169540212592
30
0
11
87.788570471416207
21
74.648169540212578
31
0
0
LINE
5
164
100
AcDbEntity
8
0
100
AcDbLine
10
87.788570471416207
20
74.648169540212578
30
0
11
87.788570471416207
21
72.232584022329277
31
0
0
LINE
5
165
100
AcDbEntity
8
0
100
AcDbLine
10
93.857834883342477
20
67.375442050741128
30
0
11
90.238788672099801
21
67.375442050741142
31
0
0
LINE
5
166
100
AcDbEntity
8
0
100
AcDbLine
10
90.238788672099801
20
67.375442050741142
30
0
11
90.238788672099815
21
79.375442527578301
31
0
0
LINE
5
167
100
AcDbEntity
8
0
100
AcDbLine
10
90.238788672099815
20
79.375442527578301
30
0
11
93.857834883342491
21
79.375442527578286
31
0
0
LINE
5
168
100
AcDbEntity
8
0
100
AcDbLine
10
93.857834883342491
20
79.375442527578286
30
0
11
93.857834883342477
21
67.375442050741128
31
0
0
LINE
5
169
100
AcDbEntity
8
0
100
AcDbLine
10
109.91843516410418
20
67.3754420507411
30
0
11
106.69766718925067
21
67.3754420507411
31
0
0
LINE
5
170
100
AcDbEntity
8
0
100
AcDbLine
10
106.69766718925067
20
67.3754420507411
30
0
11
100.47255808890888
21
74.059423469350747
31
0
0
LINE
5
171
100
AcDbEntity
8
0
100
AcDbLine
10
100.47255808890888
20
74.059423469350733
30
0
11
100.47255808890887
21
67.375442050741114
31
0
0
LINE
5
172
100
AcDbEntity
8
0
100
AcDbLine
10
100.47255808890888
20
67.375442050741114
30
0
11
96.888139792094918
21
67.375442050741128
31
0
0
LINE
5
173
100
AcDbEntity
8
0
100
AcDbLine
10
96.888139792094918
20
67.375442050741128
30
0
11
96.888139792094933
21
79.375442527578286
31
0
0
LINE
5
174
100
AcDbEntity
8
0
100
AcDbLine
10
96.888139792094933
20
79.375442527578286
30
0
11
100.10026270927023
21
79.375442527578272
31
0
0
LINE
5
175
100
AcDbEntity
8
0
100
AcDbLine
10
100.10026270927023
20
79.375442527578272
30
0
11
106.30805308402607
21
72.726091407583141
31
0
0
LINE
5
176
100
AcDbEntity
8
0
100
AcDbLine
10
106.30805308402607
20
72.726091407583141
30
0
11
106.30805308402608
21
79.375442527578258
31
0
0
LINE
5
177
100
AcDbEntity
8
0
100
AcDbLine
10
106.30805308402607
20
79.375442527578258
30
0
11
109.9184351641042
21
79.375442527578258
31
0
0
LINE
5
178
100
AcDbEntity
8
0
100
AcDbLine
10
109.9184351641042
20
79.375442527578258
30
0
11
109.91843516410418
21
67.3754420507411
31
0
0
SPLINE
5
179
100
AcDbEntity
8
0
100
AcDbSpline
70
0
71
2
72
6
73
3
74
0
42
0.000000001
43
0.0000000001
44
0.0000000001
40
0
40
0
40
0
40
1
40
1
40
1
10
125.26910121024677
20
73.158992790029387
30
0
10
125.26910121024676
20
71.314837001607756
30
0
10
124.59376627982684
20
70.197953246877532
30
0
0
SPLINE
5
180
100
AcDbEntity
8
0
100
AcDbSpline
70
0
71
2
72
6
73
3
74
0
42
0.000000001
43
0.0000000001
44
0.0000000001
40
0
40
0
40
0
40
1
40
1
40
1
10
124.59376627982684
20
70.197953246877532
30
0
10
123.92710978568621
20
69.081069492147321
30
0
10
123.01801020682879
20
68.388430141256208
30
0
0
SPLINE
5
181
100
AcDbEntity
8
0
100
AcDbSpline
70
0
71
2
72
6
73
3
74
0
42
0.000000001
43
0.0000000001
44
0.0000000001
40
0
40
0
40
0
40
1
40
1
40
1
10
123.01801020682879
20
68.388430141256208
30
0
10
121.72797495902606
20
67.375442050741071
30
0
10
119.40762812675067
20
67.375442050741071
30
0
0
LINE
5
182
100
AcDbEntity
8
0
100
AcDbLine
10
119.40762812675067
20
67.375442050741071
30
0
11
112.93143565238543
21
67.375442050741086
31
0
0
LINE
5
183
100
AcDbEntity
8
0
100
AcDbLine
10
112.93143565238543
20
67.375442050741086
30
0
11
112.93143565238545
21
79.375442527578244
31
0
0
LINE
5
184
100
AcDbEntity
8
0
100
AcDbLine
10
112.93143565238545
20
79.375442527578244
30
0
11
117.91844660819599
21
79.37544252757823
31
0
0
SPLINE
5
185
100
AcDbEntity
8
0
100
AcDbSpline
70
0
71
2
72
6
73
3
74
0
42
0.000000001
43
0.0000000001
44
0.0000000001
40
0
40
0
40
0
40
1
40
1
40
1
10
117.91844660819599
20
79.37544252757823
30
0
10
119.04399210990498
20
79.37544252757823
30
0
10
119.84051997245381
20
79.254230521962995
30
0
0
SPLINE
5
186
100
AcDbEntity
8
0
100
AcDbSpline
70
0
71
2
72
6
73
3
74
0
42
0.000000001
43
0.0000000001
44
0.0000000001
40
0
40
0
40
0
40
1
40
1
40
1
10
119.84051997245381
20
79.254230521962995
30
0
10
120.64572627128193
20
79.141676687047834
30
0
10
121.28640467704365
20
78.92522599582469
30
0
0
SPLINE
5
187
100
AcDbEntity
8
0
100
AcDbSpline
70
0
71
2
72
6
73
3
74
0
42
0.000000001
43
0.0000000001
44
0.0000000001
40
0
40
0
40
0
40
1
40
1
40
1
10
121.28640467704365
20
78.92522599582469
30
0
10
121.9271021562917
20
78.717433475301618
30
0
10
122.37731272758076
20
78.44903495197093
30
0
0
SPLINE
5
188
100
AcDbEntity
8
0
100
AcDbSpline
70
0
71
2
72
6
73
3
74
0
42
0.000000001
43
0.0000000001
44
0.0000000001
40
0
40
0
40
0
40
1
40
1
40
1
10
122.37731272758076
20
78.44903495197093
30
0
10
122.82754237235615
20
78.189294599340315
30
0
10
123.18251902640888
20
77.886265777395124
30
0
0
SPLINE
5
189
100
AcDbEntity
8
0
100
AcDbSpline
70
0
71
2
72
6
73
3
74
0
42
0.000000001
43
0.0000000001
44
0.0000000001
40
0
40
0
40
0
40
1
40
1
40
1
10
123.18251902640888
20
77.886265777395124
30
0
10
123.79723841727802
20
77.384099029348249
30
0
10
124.25610835136006
20
76.700119041250105
30
0
0
SPLINE
5
190
100
AcDbEntity
8
0
100
AcDbSpline
70
0
71
2
72
6
73
3
74
0
42
0.000000001
43
0.0000000001
44
0.0000000001
40
0
40
0
40
0
40
1
40
1
40
1
10
124.25610835136006
20
76.700119041250105
30
0
10
124.72363764823506
20
76.016134284780364
30
0
10
124.99203974784443
20
75.115701221273284
30
0
0
SPLINE
5
191
100
AcDbEntity
8
0
100
AcDbSpline
70
0
71
2
72
6
73
3
74
0
42
0.000000001
43
0.0000000001
44
0.0000000001
40
0
40
0
40
0
40
1
40
1
40
1
10
124.99203974784443
20
75.115701221273284
30
0
10
125.26910121024677
20
74.215268157766204
30
0
10
125.26910121024677
20
73.158992790029387
30
0
0
SPLINE
5
192
100
AcDbEntity
8
0
100
AcDbSpline
70
0
71
2
72
6
73
3
74
0
42
0.000000001
43
0.0000000001
44
0.0000000001
40
0
40
0
40
0
40
1
40
1
40
1
10
121.5894442278249
20
73.314837478444929
30
0
10
121.5894442278249
20
74.77804090862071
30
0
10
121.02666194022724
20
75.591892265127058
30
0
0
SPLINE
5
193
100
AcDbEntity
8
0
100
AcDbSpline
70
0
71
2
72
6
73
3
74
0
42
0.000000001
43
0.0000000001
44
0.0000000001
40
0
40
0
40
0
40
1
40
1
40
1
10
121.02666194022724
20
75.591892265127058
30
0
10
120.47255808890888
20
76.414402984426374
30
0
10
119.6846705156667
20
76.691459678457136
30
0
0
SPLINE
5
194
100
AcDbEntity
8
0
100
AcDbSpline
70
0
71
2
72
6
73
3
74
0
42
0.000000001
43
0.0000000001
44
0.0000000001
40
0
40
0
40
0
40
1
40
1
40
1
10
119.6846705156667
20
76.691459678457136
30
0
10
118.90546137870381
20
76.968516372487898
30
0
10
118.09159571708271
20
76.968516372487898
30
0
0
LINE
5
195
100
AcDbEntity
8
0
100
AcDbLine
10
118.09159571708271
20
76.968516372487898
30
0
11
116.55047709525654
21
76.968516372487898
31
0
0
LINE
5
196
100
AcDbEntity
8
0
100
AcDbLine
10
116.55047709525654
20
76.968516372487898
30
0
11
116.55047709525653
21
69.860290550039167
31
0
0
LINE
5
197
100
AcDbEntity
8
0
100
AcDbLine
10
116.55047709525653
20
69.860290550039167
30
0
11
118.0915957170827
21
69.860290550039167
31
0
0
SPLINE
5
198
100
AcDbEntity
8
0
100
AcDbSpline
70
0
71
2
72
6
73
3
74
0
42
0.000000001
43
0.0000000001
44
0.0000000001
40
0
40
0
40
0
40
1
40
1
40
1
10
118.0915957170827
20
69.860290550039167
30
0
10
119.51152140677996
20
69.860290550039167
30
0
10
120.55047328055926
20
70.535615943715925
30
0
0
SPLINE
5
199
100
AcDbEntity
8
0
100
AcDbSpline
70
0
71
2
72
6
73
3
74
0
42
0.000000001
43
0.0000000001
44
0.0000000001
40
0
40
0
40
0
40
1
40
1
40
1
10
120.55047328055926
20
70.535615943715925
30
0
10
121.58944422782488
20
71.210938953206892
30
0
10
121.5894442278249
20
73.314837478444929
30
0
0
LINE
5
200
100
AcDbEntity
8
0
100
AcDbLine
10
136.55047709525653
20
67.375442050741029
30
0
11
127.50285441459246
21
67.375442050741043
31
0
0
LINE
5
201
100
AcDbEntity
8
0
100
AcDbLine
10
127.50285441459246
20
67.375442050741043
30
0
11
127.50285441459248
21
79.375442527578201
31
0
0
LINE
5
202
100
AcDbEntity
8
0
100
AcDbLine
10
127.50285441459248
20
79.375442527578201
30
0
11
136.40328700126241
21
79.375442527578187
31
0
0
LINE
5
203
100
AcDbEntity
8
0
100
AcDbLine
10
136.40328700126241
20
79.375442527578187
30
0
11
136.40328700126241
21
76.968516372487855
31
0
0
LINE
5
204
100
AcDbEntity
8
0
100
AcDbLine
10
136.40328700126241
20
76.968516372487855
30
0
11
131.12191493094991
21
76.968516372487869
31
0
0
LINE
5
205
100
AcDbEntity
8
0
100
AcDbLine
10
131.12191493094991
20
76.968516372487869
30
0
11
131.12191493094991
21
74.769381545827713
31
0
0
LINE
5
206
100
AcDbEntity
8
0
100
AcDbLine
10
131.12191493094991
20
74.769381545827713
30
0
11
136.16086299003194
21
74.769381545827713
31
0
0
LINE
5
207
100
AcDbEntity
8
0
100
AcDbLine
10
136.16086299003194
20
74.769381545827699
30
0
11
136.16086299003194
21
72.353796027944398
31
0
0
LINE
5
208
100
AcDbEntity
8
0
100
AcDbLine
10
136.16086299003192
20
72.353796027944398
30
0
11
131.12191493094988
21
72.353796027944412
31
0
0
LINE
5
209
100
AcDbEntity
8
0
100
AcDbLine
10
131.12191493094988
20
72.353796027944412
30
0
11
131.12191493094988
21
69.791027568624344
31
0
0
LINE
5
210
100
AcDbEntity
8
0
100
AcDbLine
10
131.12191493094988
20
69.791027568624344
30
0
11
136.55047709525653
21
69.791027568624344
31
0
0
LINE
5
211
100
AcDbEntity
8
0
100
AcDbLine
10
136.55047709525653
20
69.79102756862433
30
0
11
136.55047709525653
21
67.375442050741029
31
0
0
LINE
5
212
100
AcDbEntity
8
0
100
AcDbLine
10
150.5937700945241
20
67.375442050741
30
0
11
146.70632655204363
21
67.375442050741
31
0
0
LINE
5
213
100
AcDbEntity
8
0
100
AcDbLine
10
146.70632655204363
20
67.375442050741015
30
0
11
145.76260859550067
21
69.505311511800585
31
0
0
SPLINE
5
214
100
AcDbEntity
8
0
100
AcDbSpline
70
0
71
2
72
6
73
3
74
0
42
0.000000001
43
0.0000000001
44
0.0000000001
40
0
40
0
40
0
40
1
40
1
40
1
10
145.76260859550067
20
69.505311511800585
30
0
10
145.24312312186785
20
70.674144290731249
30
0
10
144.82753092826434
20
71.210938953206835
30
0
0
SPLINE
5
215
100
AcDbEntity
8
0
100
AcDbSpline
70
0
71
2
72
6
73
3
74
0
42
0.000000001
43
0.0000000001
44
0.0000000001
40
0
40
0
40
0
40
1
40
1
40
1
10
144.82753092826434
20
71.210938953206835
30
0
10
144.41195780814715
20
71.756395362661181
30
0
10
144.01368434012957
20
71.903580688283739
30
0
0
SPLINE
5
216
100
AcDbEntity
8
0
100
AcDbSpline
70
0
71
2
72
6
73
3
74
0
42
0.000000001
43
0.0000000001
44
0.0000000001
40
0
40
0
40
0
40
1
40
1
40
1
10
144.01368434012957
20
71.903580688283739
30
0
10
143.62407023490496
20
72.059425376699267
30
0
10
143.00069148124285
20
72.059425376699267
30
0
0
LINE
5
217
100
AcDbEntity
8
0
100
AcDbLine
10
143.00069148124285
20
72.059425376699267
30
0
11
142.59377772391863
21
72.059425376699267
31
0
0
LINE
5
218
100
AcDbEntity
8
0
100
AcDbLine
10
142.59377772391863
20
72.059425376699267
30
0
11
142.59377772391863
21
67.375442050741015
31
0
0
LINE
5
219
100
AcDbEntity
8
0
100
AcDbLine
10
142.59377772391863
20
67.375442050741015
30
0
11
138.97471720756121
21
67.375442050741029
31
0
0
LINE
5
220
100
AcDbEntity
8
0
100
AcDbLine
10
138.97471720756121
20
67.375442050741029
30
0
11
138.97471720756124
21
79.375442527578187
31
0
0
LINE
5
221
100
AcDbEntity
8
0
100
AcDbLine
10
138.97471720756124
20
79.375442527578187
30
0
11
145.13057047904562
21
79.375442527578173
31
0
0
SPLINE
5
222
100
AcDbEntity
8
0
100
AcDbSpline
70
0
71
2
72
6
73
3
74
0
42
0.000000001
43
0.0000000001
44
0.0000000001
40
0
40
0
40
0
40
1
40
1
40
1
10
145.13057047904562
20
79.375442527578173
30
0
10
146.6197519976003
20
79.375442527578173
30
0
10
147.57212931693624
20
78.769381307409105
30
0
0
SPLINE
5
223
100
AcDbEntity
8
0
100
AcDbSpline
70
0
71
2
72
6
73
3
74
0
42
0.000000001
43
0.0000000001
44
0.0000000001
40
0
40
0
40
0
40
1
40
1
40
1
10
147.57212931693624
20
78.769381307409105
30
0
10
148.52450663627218
20
78.163321279332919
30
0
10
148.94009882987569
20
77.297519706533237
30
0
0
SPLINE
5
224
100
AcDbEntity
8
0
100
AcDbSpline
70
0
71
2
72
6
73
3
74
0
42
0.000000001
43
0.0000000001
44
0.0000000001
40
0
40
0
40
0
40
1
40
1
40
1
10
148.94009882987569
20
77.297519706533237
30
0
10
149.36433131278585
20
76.43171932582645
30
0
10
149.36433131278585
20
75.652498267934604
30
0
0
SPLINE
5
225
100
AcDbEntity
8
0
100
AcDbSpline
70
0
71
2
72
6
73
3
74
0
42
0.000000001
43
0.0000000001
44
0.0000000001
40
0
40
0
40
0
40
1
40
1
40
1
10
149.36433131278585
20
75.652498267934604
30
0
10
149.36433131278585
20
74.743408225820346
30
0
10
149.00935465873312
20
74.111372493551059
30
0
0
SPLINE
5
226
100
AcDbEntity
8
0
100
AcDbSpline
70
0
71
2
72
6
73
3
74
0
42
0.000000001
43
0.0000000001
44
0.0000000001
40
0
40
0
40
0
40
1
40
1
40
1
10
149.00935465873312
20
74.111372493551059
30
0
10
148.66303736747335
20
73.487996124074741
30
0
10
148.27342326224874
20
73.202282451436815
30
0
0
SPLINE
5
227
100
AcDbEntity
8
0
100
AcDbSpline
70
0
71
2
72
6
73
3
74
0
42
0.000000001
43
0.0000000001
44
0.0000000001
40
0
40
0
40
0
40
1
40
1
40
1
10
148.27342326224874
20
73.202282451436815
30
0
10
147.88380915702413
20
72.916568778798876
30
0
10
147.39896113456319
20
72.65682604198247
30
0
0
SPLINE
5
228
100
AcDbEntity
8
0
100
AcDbSpline
70
0
71
2
72
6
73
3
74
0
42
0.000000001
43
0.0000000001
44
0.0000000001
40
0
40
0
40
0
40
1
40
1
40
1
10
147.39896113456319
20
72.65682604198247
30
0
10
147.97904307426043
20
72.319165729329882
30
0
10
148.3513384538991
20
71.8516316640833
30
0
0
SPLINE
5
229
100
AcDbEntity
8
0
100
AcDbSpline
70
0
71
2
72
6
73
3
74
0
42
0.000000001
43
0.0000000001
44
0.0000000001
40
0
40
0
40
0
40
1
40
1
40
1
10
148.3513384538991
20
71.8516316640833
30
0
10
148.73229319633074
20
71.392759345815463
30
0
10
149.38165003837176
20
69.98150255565433
30
0
0
LINE
5
230
100
AcDbEntity
8
0
100
AcDbLine
10
149.38165003837176
20
69.98150255565433
30
0
11
150.5937700945241
21
67.375442050741
31
0
0
SPLINE
5
231
100
AcDbEntity
8
0
100
AcDbSpline
70
0
71
2
72
6
73
3
74
0
42
0.000000001
43
0.0000000001
44
0.0000000001
40
0
40
0
40
0
40
1
40
1
40
1
10
145.67601496757101
20
75.583235286519823
30
0
10
145.67601496757101
20
76.414402984426317
30
0
10
145.13057047904562
20
76.743406318471727
30
0
0
SPLINE
5
232
100
AcDbEntity
8
0
100
AcDbSpline
70
0
71
2
72
6
73
3
74
0
42
0.000000001
43
0.0000000001
44
0.0000000001
40
0
40
0
40
0
40
1
40
1
40
1
10
145.13057047904562
20
76.743406318471727
30
0
10
144.5851069170339
20
77.072412036702929
30
0
10
143.35566813529562
20
77.072412036702929
30
0
0
LINE
5
233
100
AcDbEntity
8
0
100
AcDbLine
10
143.35566813529562
20
77.072412036702929
30
0
11
142.59377772391866
21
77.072412036702929
31
0
0
LINE
5
234
100
AcDbEntity
8
0
100
AcDbLine
10
142.59377772391866
20
77.072412036702929
30
0
11
142.59377772391866
21
74.180637859151659
31
0
0
LINE
5
235
100
AcDbEntity
8
0
100
AcDbLine
10
142.59377772391866
20
74.180637859151659
30
0
11
143.37298686088155
21
74.180637859151659
31
0
0
SPLINE
5
236
100
AcDbEntity
8
0
100
AcDbSpline
70
0
71
2
72
6
73
3
74
0
42
0.000000001
43
0.0000000001
44
0.0000000001
40
0
40
0
40
0
40
1
40
1
40
1
10
143.37298686088155
20
74.180637859151659
30
0
10
144.69765955985616
20
74.180637859151659
30
0
10
145.1825075823171
20
74.466351531789599
30
0
0
SPLINE
5
237
100
AcDbEntity
8
0
100
AcDbSpline
70
0
71
2
72
6
73
3
74
0
42
0.000000001
43
0.0000000001
44
0.0000000001
40
0
40
0
40
0
40
1
40
1
40
1
10
145.1825075823171
20
74.466351531789599
30
0
10
145.67601496757101
20
74.760722183034716
30
0
10
145.67601496757101
20
75.583235286519823
30
0
0
ENDSEC
0
SECTION
2
OBJECTS
0
DICTIONARY
5
C
100
AcDbDictionary
3
ACAD_GROUP
350
D
3
ACAD_MLINESTYLE
350
17
0
DICTIONARY
5
D
100
AcDbDictionary
0
DICTIONARY
5
1A
330
C
100
AcDbDictionary
0
DICTIONARY
5
17
100
AcDbDictionary
0
ENDSEC
0
EOF
