0
SECTION
2
HEADER
9
$INSUNITS
70
4
9
$ACADVER
1
AC1014
9
$HANDSEED
5
FFFF
0
ENDSEC
0
SECTION
2
TABLES
0
TABLE
2
VPORT
5
8
100
AcDbSymbolTable
0
ENDTAB
0
TABLE
2
LTYPE
5
5
100
AcDbSymbolTable
0
LTYPE
5
14
100
AcDbSymbolTableRecord
100
AcDbLinetypeTableRecord
2
BYBLOCK
70
0
0
LTYPE
5
15
100
AcDbSymbolTableRecord
100
AcDbLinetypeTableRecord
2
BYLAYER
70
0
0
ENDTAB
0
TABLE
2
LAYER
5
2
100
AcDbSymbolTable
70
2
0
LAYER
5
50
100
AcDbSymbolTableRecord
100
AcDbLayerTableRecord
2
0
70
0
6
CONTINUOUS
0
ENDTAB
0
TABLE
2
STYLE
5
3
100
AcDbSymbolTable
70
1
0
STYLE
5
11
100
AcDbSymbolTableRecord
100
AcDbTextStyleTableRecord
2
STANDARD
70
0
0
ENDTAB
0
TABLE
2
VIEW
5
6
100
AcDbSymbolTable
70
0
0
ENDTAB
0
TABLE
2
UCS
5
7
100
AcDbSymbolTable
70
0
0
ENDTAB
0
TABLE
2
APPID
5
9
100
AcDbSymbolTable
70
2
0
APPID
5
12
100
AcDbSymbolTableRecord
100
AcDbRegAppTableRecord
2
ACAD
70
0
0
ENDTAB
0
TABLE
2
DIMSTYLE
5
A
100
AcDbSymbolTable
70
1
0
ENDTAB
0
TABLE
2
BLOCK_RECORD
5
1
100
AcDbSymbolTable
70
1
0
BLOCK_RECORD
5
1F
100
AcDbSymbolTableRecord
100
AcDbBlockTableRecord
2
*MODEL_SPACE
0
BLOCK_RECORD
5
1B
100
AcDbSymbolTableRecord
100
AcDbBlockTableRecord
2
*PAPER_SPACE
0
ENDTAB
0
ENDSEC
0
SECTION
2
BLOCKS
0
BLOCK
5
20
100
AcDbEntity
100
AcDbBlockBegin
2
*MODEL_SPACE
0
ENDBLK
5
21
100
AcDbEntity
100
AcDbBlockEnd
0
BLOCK
5
1C
100
AcDbEntity
100
AcDbBlockBegin
2
*PAPER_SPACE
0
ENDBLK
5
1D
100
AcDbEntity
100
AcDbBlockEnd
0
ENDSEC
0
SECTION
2
ENTITIES
0
LWPOLYLINE
5
100
100
AcDbEntity
8
0
100
AcDbPolyline
90
20
70
1
43
0.0
10
0.99999999999999989
20
0
10
134
20
0
42
0.41421356237309542
10
135
20
0.99999999999999978
10
135
20
79
42
-0.41421356237309509
10
136
20
80
10
167
20
80
42
0.414213562373069
10
168
20
81
10
167.99999999999997
20
112.5
42
0.41421356237307427
10
167
20
113.5
10
1.0000000000000142
20
113.5
42
0.41421356237310225
10
-6.8001160258290838e-15
20
112.5
10
-1.3877787807814457e-16
20
51
42
0.41421356237309875
10
1
20
49.999999999999993
10
13
20
49.999999999999993
42
-0.41421356237309692
10
14.000000000000004
20
48.999999999999993
10
14.000000000000002
20
12.999999999999989
42
-0.41421356237309437
10
13.000000000000004
20
11.999999999999989
10
1.0000000000000009
20
11.999999999999989
42
0.41421356237309492
10
6.9388939039072284e-16
20
10.999999999999988
10
-2.7755575615628914e-16
20
0.99999999999999978
42
0.41421356237309515
0
LINE
5
101
100
AcDbEntity
8
0
100
AcDbLine
10
1.0000000000000142
20
113.5
30
0
11
4.0500000000000007
21
113.5
31
0
0
LINE
5
102
100
AcDbEntity
8
0
100
AcDbLine
10
0
20
109.45
30
0
11
-6.8001160258290838e-15
21
112.5
31
0
0
CIRCLE
5
103
100
AcDbEntity
8
0
100
AcDbCircle
10
4.0500000000000007
20
109.45
30
0
40
1.7500000000000013
210
0
220
0
230
1
0
LINE
5
104
100
AcDbEntity
8
0
100
AcDbLine
10
167
20
113.5
30
0
11
163.94999999999999
21
113.5
31
0
0
LINE
5
105
100
AcDbEntity
8
0
100
AcDbLine
10
168
20
109.45
30
0
11
167.99999999999997
21
112.5
31
0
0
CIRCLE
5
106
100
AcDbEntity
8
0
100
AcDbCircle
10
163.94999999999999
20
109.45
30
0
40
1.7500000000000124
210
0
220
0
230
1
0
LINE
5
107
100
AcDbEntity
8
0
100
AcDbLine
10
134
20
0
30
0
11
131.5
21
0
31
0
0
LINE
5
108
100
AcDbEntity
8
0
100
AcDbLine
10
135
20
3.5000000000000004
30
0
11
135
21
0.99999999999999978
31
0
0
CIRCLE
5
109
100
AcDbEntity
8
0
100
AcDbCircle
10
131.5
20
3.5000000000000004
30
0
40
1.7500000000000036
210
0
220
0
230
1
0
LINE
5
110
100
AcDbEntity
8
0
100
AcDbLine
10
0.99999999999999989
20
0
30
0
11
4.0500000000000007
21
0
31
0
0
LINE
5
111
100
AcDbEntity
8
0
100
AcDbLine
10
0
20
3.5000000000000004
30
0
11
-2.7755575615628914e-16
21
0.99999999999999978
31
0
0
CIRCLE
5
112
100
AcDbEntity
8
0
100
AcDbCircle
10
4.0500000000000007
20
3.5000000000000004
30
0
40
1.7500000000000004
210
0
220
0
230
1
0
CIRCLE
5
113
100
AcDbEntity
8
0
100
AcDbCircle
10
26.000000387430191
20
83.5
30
0
40
1.7499999999999973
210
0
220
0
230
1
0
CIRCLE
5
114
100
AcDbEntity
8
0
100
AcDbCircle
10
50.00000074505806
20
83.5
30
0
40
1.7499999999999962
210
0
220
0
230
1
0
CIRCLE
5
115
100
AcDbEntity
8
0
100
AcDbCircle
10
26.000000387430191
20
30.499999999999989
30
0
40
1.7500000000000016
210
0
220
0
230
1
0
CIRCLE
5
116
100
AcDbEntity
8
0
100
AcDbCircle
10
50.000000387430191
20
30.499999999999989
30
0
40
1.7500000000000029
210
0
220
0
230
1
0
ENDSEC
0
SECTION
2
OBJECTS
0
DICTIONARY
5
C
100
AcDbDictionary
3
ACAD_GROUP
350
D
3
ACAD_MLINESTYLE
350
17
0
DICTIONARY
5
D
100
AcDbDictionary
0
DICTIONARY
5
1A
330
C
100
AcDbDictionary
0
DICTIONARY
5
17
100
AcDbDictionary
0
ENDSEC
0
EOF
